<svg width="17" height="15" viewBox="0 0 17 15" fill="none" xmlns="http://www.w3.org/2000/svg">
<path fill-rule="evenodd" clip-rule="evenodd" d="M8.33333 2.10352L8.97087 1.41857C10.7314 -0.472857 13.5858 -0.472857 15.3463 1.41857C17.1068 3.31 17.1068 6.37661 15.3463 8.26804L9.60841 14.4326C8.90421 15.1891 7.76246 15.1891 7.05825 14.4326L1.32039 8.26805C-0.44013 6.37662 -0.440129 3.31 1.32039 1.41857C3.08091 -0.472858 5.93527 -0.472857 7.69579 1.41857L8.33333 2.10352ZM12.5 1.875C12.1548 1.875 11.875 2.15482 11.875 2.5C11.875 2.84518 12.1548 3.125 12.5 3.125C13.0753 3.125 13.5417 3.59137 13.5417 4.16667C13.5417 4.51184 13.8215 4.79167 14.1667 4.79167C14.5118 4.79167 14.7917 4.51184 14.7917 4.16667C14.7917 2.90101 13.7657 1.875 12.5 1.875Z" fill="#B75555"/>
</svg>
