<svg width="31" height="30" viewBox="0 0 31 30" fill="none" xmlns="http://www.w3.org/2000/svg">
<path fill-rule="evenodd" clip-rule="evenodd" d="M15.4314 0C7.16148 0 0.476074 6.875 0.476074 15.3803C0.476074 22.1791 4.75964 27.9341 10.7021 29.9709C11.4451 30.1241 11.7172 29.64 11.7172 29.2328C11.7172 28.8762 11.6927 27.6541 11.6927 26.3806C7.5325 27.2975 6.66617 24.5472 6.66617 24.5472C5.9976 22.7647 5.00699 22.3066 5.00699 22.3066C3.64536 21.3644 5.10617 21.3644 5.10617 21.3644C6.61658 21.4662 7.40913 22.9431 7.40913 22.9431C8.74597 25.2856 10.9002 24.6237 11.7668 24.2162C11.8905 23.2231 12.2869 22.5356 12.7078 22.1537C9.38975 21.7972 5.89873 20.4731 5.89873 14.5653C5.89873 12.8847 6.4926 11.5097 7.43362 10.4403C7.28515 10.0584 6.76505 8.47937 7.5824 6.36594C7.5824 6.36594 8.84515 5.95844 11.6924 7.94468C12.9114 7.60802 14.1685 7.43675 15.4314 7.43531C16.6941 7.43531 17.9814 7.61375 19.17 7.94468C22.0176 5.95844 23.2804 6.36594 23.2804 6.36594C24.0977 8.47937 23.5773 10.0584 23.4288 10.4403C24.3946 11.5097 24.964 12.8847 24.964 14.5653C24.964 20.4731 21.473 21.7716 18.1301 22.1537C18.675 22.6375 19.1453 23.5541 19.1453 25.0056C19.1453 27.0681 19.1208 28.7234 19.1208 29.2325C19.1208 29.64 19.3932 30.1241 20.1359 29.9712C26.0783 27.9337 30.3619 22.1791 30.3619 15.3803C30.3864 6.875 23.6765 0 15.4314 0Z" fill="white"/>
</svg>
