<svg width="171" height="43" viewBox="0 0 171 43" fill="none" xmlns="http://www.w3.org/2000/svg">
<path d="M19.656 34L17.316 27.808H5.364L3.024 34H0.36L10.044 8.8H12.636L22.32 34H19.656ZM6.264 25.432H16.416L11.34 11.932L6.264 25.432ZM33.6198 15.568C35.8038 15.568 37.5198 16.24 38.7678 17.584C40.0398 18.904 40.6758 20.692 40.6758 22.948V34H38.2998V22.948C38.2998 21.34 37.8678 20.092 37.0038 19.204C36.1638 18.316 34.9638 17.872 33.4038 17.872C31.6758 17.872 30.2718 18.424 29.1918 19.528C28.1118 20.608 27.5718 22.288 27.5718 24.568V34H25.1958V16H27.5718V18.808C28.9158 16.648 30.9318 15.568 33.6198 15.568ZM47.682 11.68C47.346 12.016 46.938 12.184 46.458 12.184C45.978 12.184 45.57 12.016 45.234 11.68C44.898 11.344 44.73 10.936 44.73 10.456C44.73 9.976 44.898 9.568 45.234 9.232C45.57 8.896 45.978 8.728 46.458 8.728C46.938 8.728 47.346 8.896 47.682 9.232C48.018 9.568 48.186 9.976 48.186 10.456C48.186 10.936 48.018 11.344 47.682 11.68ZM45.27 34V16H47.646V34H45.27ZM58.016 34L50.888 8.8H55.244L60.536 28.492L66.26 8.8H70.076L75.764 28.492L81.056 8.8H85.412L78.284 34H73.496L68.168 15.604L62.804 34H58.016ZM100.512 16H104.4V34H100.512V31.408C99.0483 33.448 96.9483 34.468 94.2123 34.468C91.7403 34.468 89.6283 33.556 87.8763 31.732C86.1243 29.884 85.2483 27.64 85.2483 25C85.2483 22.336 86.1243 20.092 87.8763 18.268C89.6283 16.444 91.7403 15.532 94.2123 15.532C96.9483 15.532 99.0483 16.54 100.512 18.556V16ZM90.7563 29.14C91.8363 30.22 93.1923 30.76 94.8243 30.76C96.4563 30.76 97.8123 30.22 98.8923 29.14C99.9723 28.036 100.512 26.656 100.512 25C100.512 23.344 99.9723 21.976 98.8923 20.896C97.8123 19.792 96.4563 19.24 94.8243 19.24C93.1923 19.24 91.8363 19.792 90.7563 20.896C89.6763 21.976 89.1363 23.344 89.1363 25C89.1363 26.656 89.6763 28.036 90.7563 29.14ZM121.136 16H125.384L118.364 34H113.864L106.844 16H111.092L116.132 29.68L121.136 16ZM130.203 26.656C130.491 28.024 131.151 29.08 132.183 29.824C133.215 30.544 134.475 30.904 135.963 30.904C138.027 30.904 139.575 30.16 140.607 28.672L143.811 30.544C142.035 33.16 139.407 34.468 135.927 34.468C132.999 34.468 130.635 33.58 128.835 31.804C127.035 30.004 126.135 27.736 126.135 25C126.135 22.312 127.023 20.068 128.799 18.268C130.575 16.444 132.855 15.532 135.639 15.532C138.279 15.532 140.439 16.456 142.119 18.304C143.823 20.152 144.675 22.396 144.675 25.036C144.675 25.444 144.627 25.984 144.531 26.656H130.203ZM130.167 23.488H140.751C140.487 22.024 139.875 20.92 138.915 20.176C137.979 19.432 136.875 19.06 135.603 19.06C134.163 19.06 132.963 19.456 132.003 20.248C131.043 21.04 130.431 22.12 130.167 23.488ZM150.885 20.968C150.885 21.568 151.209 22.048 151.857 22.408C152.529 22.744 153.333 23.044 154.269 23.308C155.229 23.548 156.189 23.836 157.149 24.172C158.109 24.508 158.913 25.084 159.561 25.9C160.233 26.692 160.569 27.7 160.569 28.924C160.569 30.652 159.897 32.008 158.553 32.992C157.233 33.976 155.565 34.468 153.549 34.468C151.773 34.468 150.249 34.096 148.977 33.352C147.705 32.608 146.781 31.576 146.205 30.256L149.553 28.312C150.177 30.04 151.509 30.904 153.549 30.904C155.589 30.904 156.609 30.232 156.609 28.888C156.609 28.312 156.273 27.844 155.601 27.484C154.953 27.124 154.149 26.824 153.189 26.584C152.253 26.32 151.305 26.02 150.345 25.684C149.385 25.348 148.569 24.796 147.897 24.028C147.249 23.236 146.925 22.24 146.925 21.04C146.925 19.384 147.549 18.052 148.797 17.044C150.069 16.036 151.641 15.532 153.513 15.532C155.001 15.532 156.321 15.868 157.473 16.54C158.649 17.188 159.549 18.1 160.173 19.276L156.897 21.112C156.273 19.744 155.145 19.06 153.513 19.06C152.769 19.06 152.145 19.228 151.641 19.564C151.137 19.876 150.885 20.344 150.885 20.968Z" fill="white"/>
<circle cx="168" cy="31" r="3" fill="#FFE76B"/>
</svg>
