<svg width="33" height="30" viewBox="0 0 33 30" fill="none" xmlns="http://www.w3.org/2000/svg">
<path d="M32.3534 0.412412C31.7909 -0.0645891 30.9074 -0.132839 29.9939 0.233912H29.9924C29.0317 0.619413 2.79661 11.8724 1.72861 12.3322C1.53436 12.3997 -0.162144 13.0327 0.0126067 14.4427C0.168607 15.714 1.53211 16.2405 1.69861 16.3012L8.36838 18.585C8.81088 20.058 10.4421 25.4925 10.8029 26.6535C11.0279 27.3772 11.3946 28.3282 12.0374 28.524C12.6014 28.7415 13.1624 28.5427 13.5254 28.2577L17.6032 24.4755L24.1859 29.6092L24.3427 29.703C24.7897 29.901 25.2179 30 25.6267 30C25.9424 30 26.2454 29.9407 26.5349 29.8222C27.5212 29.4172 27.9157 28.4775 27.9569 28.371L32.8739 2.81317C33.1739 1.44817 32.7569 0.753663 32.3534 0.412412ZM14.2506 19.4985L12.0006 25.4985L9.75063 17.9985L27.0007 5.24843L14.2506 19.4985Z" fill="white"/>
</svg>
